<svg width="130" height="19" viewBox="0 0 130 19" fill="none" xmlns="http://www.w3.org/2000/svg">
<path d="M5.53053 6.8296L5.048 3.00648C5.048 2.6353 5.22122 2.44972 5.56765 2.44972C5.91408 2.44972 6.11204 2.6353 6.16153 3.00648C6.4461 4.99846 6.61313 6.22953 6.66262 6.69969C6.72449 7.15748 6.82347 7.72043 6.95956 8.38855C7.26888 9.898 7.42354 10.9868 7.42354 11.6549C7.42354 12.0261 7.23795 12.2117 6.86677 12.2117C6.49559 12.2117 6.31 12.0261 6.31 11.6549C6.31 11.0858 6.26051 10.5785 6.16153 10.1331C6.07493 9.67529 5.9945 9.27318 5.92027 8.92675C5.85841 8.58032 5.8151 8.35761 5.79036 8.25863C5.19647 8.71642 4.26235 8.94531 2.98797 8.94531C3.09933 9.92274 3.155 10.6404 3.155 11.0981C3.155 12.2117 2.6601 12.7684 1.67029 12.7684C1.06404 12.7684 0.630999 12.3973 0.371175 11.6549C0.123724 10.9868 -1.62592e-06 10.2692 -1.62592e-06 9.50208C-1.62592e-06 8.95768 0.197959 8.5432 0.593881 8.25863C1.00218 7.97407 1.39191 7.83178 1.76309 7.83178C1.45377 5.12219 1.29912 3.32817 1.29912 2.44972C1.29912 2.07854 1.48471 1.89295 1.85588 1.89295C2.22706 1.89295 2.41265 2.09091 2.41265 2.48683C2.41265 2.88276 2.43739 3.39003 2.48688 4.00866C2.53637 4.73864 2.63535 5.74082 2.78382 7.01519L2.89518 7.83178C3.68702 7.83178 4.32421 7.7328 4.80674 7.53484C5.28927 7.33688 5.53053 7.1018 5.53053 6.8296ZM1.11353 9.61343C1.11353 9.86088 1.16302 10.263 1.262 10.8198C1.37335 11.3765 1.50945 11.6549 1.67029 11.6549C1.84351 11.6549 1.94868 11.6178 1.98579 11.5435C2.02291 11.4693 2.04147 11.3208 2.04147 11.0981L1.85588 8.94531C1.65792 8.94531 1.48471 8.9948 1.33623 9.09378C1.18776 9.19276 1.11353 9.36598 1.11353 9.61343ZM9.10253 7.57196C9.47371 7.57196 9.65929 7.75755 9.65929 8.12872C9.65929 8.27719 9.62836 8.42566 9.5665 8.57413C9.50464 8.7226 9.4737 8.90201 9.4737 9.11234C9.4737 9.3103 9.53557 9.51445 9.65929 9.72478C9.79539 9.93512 9.98717 10.164 10.2346 10.4115C10.4821 10.6465 10.8532 10.8507 11.3481 11.0239C11.8431 11.1971 12.338 11.2837 12.8329 11.2837C13.3401 11.2837 13.7732 11.1538 14.132 10.894C14.4908 10.6342 14.6702 10.2692 14.6702 9.79902C14.6702 9.01955 14.4908 8.39473 14.132 7.92457C13.7732 7.44204 13.2721 7.20078 12.6287 7.20078C12.3318 7.20078 12.0286 7.29357 11.7193 7.47916C11.4224 7.66475 11.2306 7.75755 11.144 7.75755C10.7728 7.75755 10.5872 7.57196 10.5872 7.20078C10.5872 6.9657 10.7976 6.72444 11.2182 6.47698C11.6513 6.21716 12.1214 6.08725 12.6287 6.08725C13.569 6.08725 14.3299 6.43368 14.9114 7.12654C15.493 7.80704 15.7837 8.69786 15.7837 9.79902C15.7837 10.5909 15.4868 11.2219 14.8929 11.692C14.3114 12.1622 13.6866 12.3973 13.0184 12.3973C12.3503 12.3973 11.7379 12.3168 11.1811 12.156C10.6367 11.9828 10.1975 11.7724 9.86344 11.525C9.52938 11.2652 9.23863 10.9868 8.99118 10.6898C8.57051 10.1702 8.36017 9.69385 8.36017 9.26081C8.36017 8.8154 8.42822 8.42566 8.56432 8.0916C8.70042 7.74517 8.87982 7.57196 9.10253 7.57196ZM22.4736 12.7684C21.2858 12.7684 20.2898 11.8776 19.4856 10.096C19.0402 10.4548 18.4773 10.8507 17.7968 11.2837C17.1163 11.7168 16.6709 11.9828 16.4605 12.0818C16.2502 12.1684 16.077 12.2117 15.9409 12.2117C15.5697 12.2117 15.3841 12.0261 15.3841 11.6549C15.3841 11.4198 15.5697 11.228 15.9409 11.0796C16.1512 10.993 16.5904 10.7331 17.2586 10.3001C17.9391 9.85469 18.5144 9.44021 18.9845 9.05666C18.7123 8.16584 18.5762 7.17603 18.5762 6.08725C18.5762 4.4417 18.8794 3.01885 19.4856 1.81872C20.1042 0.606205 20.7909 -5.09097e-05 21.5457 -5.09097e-05C21.8673 -5.09097e-05 22.1457 0.0989294 22.3808 0.29689C22.6159 0.494851 22.7891 0.742303 22.9004 1.03924C23.1108 1.60838 23.2159 2.22701 23.2159 2.89513C23.2159 3.56325 23.1417 4.24374 22.9932 4.9366C22.8448 5.61709 22.6654 6.19242 22.455 6.66257C22.2571 7.13273 22.0158 7.57196 21.7312 7.98025C21.3106 8.58651 20.8713 9.07522 20.4136 9.4464C21.0817 10.9187 21.7684 11.6549 22.4736 11.6549C22.9561 11.6549 23.4758 11.5621 24.0325 11.3765C24.5893 11.1909 24.8862 11.0981 24.9234 11.0981C25.2945 11.0981 25.4801 11.2837 25.4801 11.6549C25.4801 11.9271 25.2945 12.1251 24.9234 12.2488C23.8841 12.5952 23.0675 12.7684 22.4736 12.7684ZM21.5457 1.11348C21.3353 1.11348 21.0631 1.3733 20.7291 1.89295C20.0362 2.98174 19.6898 4.37984 19.6898 6.08725C19.6898 6.95333 19.7826 7.71424 19.9682 8.36999C20.3764 7.98644 20.7538 7.49154 21.1002 6.88528C21.7684 5.72226 22.1024 4.34272 22.1024 2.74666C22.1024 2.38785 22.0529 2.02905 21.9539 1.67024C21.855 1.29907 21.7189 1.11348 21.5457 1.11348ZM27.2705 2.83945C27.0478 2.53014 26.9364 2.21464 26.9364 1.89295C26.9364 1.57126 27.0416 1.29288 27.2519 1.0578C27.4746 0.822724 27.7468 0.661881 28.0685 0.575274C28.4026 0.488665 28.7861 0.408244 29.2192 0.334008C29.6522 0.259772 30.0296 0.204096 30.3512 0.166979C31.1926 0.067998 31.638 0.0185077 31.6875 0.0185077C31.7493 0.00613529 31.836 -5.09097e-05 31.9473 -5.09097e-05C32.3185 -5.09097e-05 32.5041 0.185537 32.5041 0.556714C32.5041 0.655695 32.4546 0.767048 32.3556 0.890773C32.2566 1.0145 32.1576 1.08255 32.0587 1.09492C31.9597 1.10729 31.7432 1.13822 31.4091 1.18772C31.0874 1.22483 30.7534 1.26814 30.4069 1.31763C30.0605 1.35474 29.7017 1.40423 29.3305 1.4661C28.4768 1.61457 28.0499 1.75685 28.0499 1.89295C28.0499 1.99193 28.2727 2.31362 28.7181 2.85801C29.1635 3.39003 29.6831 4.01485 30.277 4.73245C30.8833 5.45006 31.3163 6.02539 31.5761 6.45843C31.8483 6.87909 31.9844 7.35544 31.9844 7.88746C31.9844 8.4071 31.7926 8.9948 31.4091 9.65055C31.0379 10.2939 30.5801 10.8383 30.0357 11.2837C29.5037 11.7168 28.9531 12.0756 28.384 12.3601C27.8149 12.6323 27.289 12.7684 26.8065 12.7684C26.3363 12.7684 25.9281 12.6138 25.5816 12.3045C25.2476 11.9951 25.0805 11.593 25.0805 11.0981C25.0805 9.77427 25.5012 8.71023 26.3425 7.90602C27.1962 7.08943 28.0871 6.68113 29.015 6.68113C29.1882 6.68113 29.4604 6.71206 29.8316 6.77393C30.2028 6.83579 30.4564 6.90384 30.5925 6.97807C30.3451 6.56978 29.7883 5.85836 28.9222 4.84381C28.0561 3.81688 27.5056 3.14877 27.2705 2.83945ZM30.8152 8.24007C30.6173 8.14109 30.3203 8.04211 29.9244 7.94313C29.5285 7.84415 29.2253 7.79466 29.015 7.79466C28.4088 7.79466 27.7839 8.0916 27.1406 8.68549C26.5096 9.267 26.1941 10.0712 26.1941 11.0981C26.1941 11.2714 26.2683 11.4075 26.4168 11.5064C26.5652 11.6054 26.7632 11.6549 27.0107 11.6549C27.2581 11.6549 27.6293 11.525 28.1242 11.2652C28.6315 11.0053 29.1573 10.6032 29.7017 10.0588C30.2461 9.50208 30.6173 8.89582 30.8152 8.24007ZM41.0498 4.23137C39.9611 4.23137 39.0702 4.62729 38.3774 5.41913C37.6845 6.21097 37.3381 7.17603 37.3381 8.31431V12.2117C37.3381 12.5828 37.1525 12.7684 36.7813 12.7684C36.4101 12.7684 36.2245 12.5828 36.2245 12.2117V8.31431C36.2245 7.21315 36.5029 6.22335 37.0597 5.3449C37.6164 4.46644 38.3279 3.84782 39.194 3.48901C37.3381 3.16732 35.6059 3.00648 33.9975 3.00648C33.6263 3.00648 33.4407 2.82089 33.4407 2.44972C33.4407 2.07854 33.6263 1.89295 33.9975 1.89295C35.9152 1.89295 38.266 2.17752 41.0498 2.74666C41.1983 2.7714 41.3282 2.85801 41.4396 3.00648C41.5509 3.14258 41.6066 3.30342 41.6066 3.48901C41.6066 3.6746 41.5447 3.84782 41.421 4.00866C41.2973 4.15713 41.1736 4.23137 41.0498 4.23137ZM51.6742 11.6549C51.6742 12.1498 51.1051 12.3973 49.9668 12.3973C49.4348 12.3973 49.0203 12.2797 48.7233 12.0446C48.4388 11.8096 48.2965 11.4013 48.2965 10.8198C48.2965 10.2382 48.247 9.73715 48.148 9.31649C48.049 8.89582 47.9129 8.68549 47.7397 8.68549C47.2201 8.68549 46.7252 9.16802 46.255 10.1331C46.057 10.529 45.8467 10.9311 45.624 11.3394C45.4013 11.7353 45.1044 12.0756 44.7332 12.3601C44.3744 12.6323 43.9537 12.7684 43.4712 12.7684C42.3577 12.7684 41.8009 11.692 41.8009 9.53919C41.8009 7.99262 41.9679 6.48936 42.302 5.0294C42.6484 3.56943 43.1248 2.36929 43.731 1.42898C44.3496 0.476293 44.9992 -5.09097e-05 45.6797 -5.09097e-05C46.3602 -5.09097e-05 46.8736 0.2474 47.2201 0.742303C47.5665 1.23721 47.7397 1.88058 47.7397 2.67242C47.7397 3.45189 47.517 4.22518 47.0716 4.99228C46.6386 5.747 46.1065 6.35945 45.4755 6.8296C45.1662 7.07705 44.9311 7.20078 44.7703 7.20078C44.3991 7.20078 44.2135 7.01519 44.2135 6.64401C44.2135 6.49554 44.4239 6.26047 44.8445 5.93878C45.2652 5.61709 45.6673 5.15931 46.0509 4.56542C46.4344 3.95917 46.6262 3.25393 46.6262 2.44972C46.6262 2.11566 46.552 1.81253 46.4035 1.54033C46.255 1.25576 46.0199 1.11348 45.6982 1.11348C45.3271 1.11348 44.925 1.50322 44.4919 2.28269C44.0713 3.04979 43.7001 4.10145 43.3784 5.43769C43.0691 6.77393 42.9144 8.14728 42.9144 9.55775C42.9144 10.9559 43.1 11.6549 43.4712 11.6549C43.9908 11.6549 44.4857 11.1724 44.9559 10.2073C45.1539 9.81139 45.3642 9.41547 45.5869 9.01955C45.8096 8.61125 46.1004 8.27101 46.4592 7.99881C46.8303 7.71424 47.2572 7.57196 47.7397 7.57196C48.8532 7.57196 49.41 8.62362 49.41 10.727C49.41 11.0981 49.5894 11.2837 49.9482 11.2837C50.3194 11.2837 50.5978 11.2528 50.7834 11.1909C50.969 11.1291 51.0803 11.0981 51.1174 11.0981C51.4886 11.0981 51.6742 11.2837 51.6742 11.6549ZM61.1028 8.62981C60.6574 9.5825 60.1811 10.3558 59.6738 10.9497C59.1665 11.5435 58.7149 11.8405 58.319 11.8405C57.49 11.8405 56.9456 11.2404 56.6858 10.0403C56.426 10.4857 56.1043 10.894 55.7207 11.2652C54.9536 12.0199 54.0876 12.3973 53.1225 12.3973C52.6276 12.3973 52.1946 12.2117 51.8234 11.8405C51.4522 11.4693 51.2666 11.0363 51.2666 10.5414C51.2666 9.32886 51.7058 8.28338 52.5843 7.40493C53.4628 6.52648 54.3969 6.08725 55.3867 6.08725C55.9435 6.08725 56.4198 6.19242 56.8157 6.40275C57.224 6.60071 57.4282 6.80486 57.4282 7.01519C57.4282 7.38637 57.2426 7.57196 56.8714 7.57196C56.7972 7.57196 56.6178 7.51009 56.3332 7.38637C56.0486 7.26264 55.7331 7.20078 55.3867 7.20078C54.7433 7.20078 54.0814 7.52247 53.4009 8.16584C52.7204 8.80921 52.3802 9.60106 52.3802 10.5414C52.3802 10.727 52.4544 10.9002 52.6029 11.061C52.7513 11.2095 52.9369 11.2837 53.1596 11.2837C53.3947 11.2837 53.6298 11.2404 53.8649 11.1538C54.1123 11.0672 54.3165 10.9682 54.4773 10.8569C54.6381 10.7455 54.8052 10.597 54.9784 10.4115C55.2382 10.1516 55.4733 9.86088 55.6836 9.53919L55.8692 9.24225C56.0672 8.95768 56.1847 8.78447 56.2218 8.7226C56.2713 8.64837 56.3208 8.57413 56.3703 8.4999C56.4322 8.42566 56.4755 8.36999 56.5002 8.33287C56.5373 8.29575 56.5745 8.25863 56.6116 8.22152C56.6734 8.15965 56.7786 8.12872 56.9271 8.12872C57.0879 8.12872 57.2178 8.20914 57.3168 8.36999C57.4282 8.51846 57.5333 8.8154 57.6323 9.26081C57.8303 10.2382 58.0592 10.727 58.319 10.727C58.4056 10.727 58.5479 10.6094 58.7458 10.3743C58.9562 10.1393 59.1912 9.79902 59.4511 9.35361C59.7109 8.90819 59.9645 8.41329 60.212 7.8689C60.8182 6.56978 61.1956 5.27066 61.3441 3.97154C61.3441 3.93442 61.3564 3.76739 61.3812 3.47045C61.4183 3.16114 61.4616 2.73428 61.5111 2.18989C61.5606 1.6455 61.6101 1.10111 61.6596 0.556714C61.6967 0.185537 61.8823 -5.09097e-05 62.2163 -5.09097e-05C62.5875 -5.09097e-05 62.7731 0.185537 62.7731 0.556714C62.7731 0.606204 62.7607 0.72993 62.736 0.927891C62.3896 4.39221 62.2163 7.03994 62.2163 8.87108C62.2163 9.46496 62.2782 9.898 62.4019 10.1702C63.7629 8.80921 65.062 8.12872 66.2993 8.12872C66.6705 8.12872 66.8561 8.31431 66.8561 8.68549C66.8561 9.05666 66.6457 9.24225 66.225 9.24225C65.8168 9.24225 65.3713 9.37216 64.8888 9.63199C64.4187 9.87944 64.0289 10.1516 63.7196 10.4486C63.4227 10.7455 63.1443 11.0239 62.8845 11.2837C62.637 11.5312 62.4762 11.6549 62.4019 11.6549C61.9441 11.6549 61.6101 11.3518 61.3998 10.7455C61.2018 10.1269 61.1028 9.42165 61.1028 8.62981ZM75.3917 4.23137C74.3029 4.23137 73.4121 4.62729 72.7192 5.41913C72.0263 6.21097 71.6799 7.17603 71.6799 8.31431V12.2117C71.6799 12.5828 71.4943 12.7684 71.1231 12.7684C70.752 12.7684 70.5664 12.5828 70.5664 12.2117V8.31431C70.5664 7.21315 70.8448 6.22335 71.4015 5.3449C71.9583 4.46644 72.6697 3.84782 73.5358 3.48901C71.6799 3.16732 69.9477 3.00648 68.3393 3.00648C67.9681 3.00648 67.7825 2.82089 67.7825 2.44972C67.7825 2.07854 67.9681 1.89295 68.3393 1.89295C70.2571 1.89295 72.6078 2.17752 75.3917 2.74666C75.5401 2.7714 75.6701 2.85801 75.7814 3.00648C75.8928 3.14258 75.9484 3.30342 75.9484 3.48901C75.9484 3.6746 75.8866 3.84782 75.7628 4.00866C75.6391 4.15713 75.5154 4.23137 75.3917 4.23137ZM77.813 6.45843C77.813 6.27284 77.9739 6.09962 78.2955 5.93878C78.9265 5.62946 79.3658 5.3449 79.6132 5.08507C80.2071 4.46644 80.504 3.57562 80.504 2.4126C80.504 2.07854 80.4484 1.7816 80.337 1.52177C80.238 1.24958 80.0896 1.11348 79.8916 1.11348C79.706 1.11348 79.5081 1.20009 79.2977 1.3733C79.0874 1.54652 78.8585 1.83109 78.611 2.22701C78.376 2.62293 78.1594 3.09309 77.9615 3.63748C77.4913 4.92423 77.2563 6.54503 77.2563 8.4999C77.2563 9.32886 77.38 9.87944 77.6274 10.1516C77.8749 10.4115 78.1471 10.5414 78.444 10.5414C78.741 10.5414 79.0008 10.4053 79.2235 10.1331C79.4462 9.86088 79.6503 9.56394 79.8359 9.24225C80.0215 8.92057 80.2813 8.62362 80.6154 8.35143C80.9495 8.07923 81.3145 7.94313 81.7104 7.94313C82.0568 7.94313 82.3043 8.01118 82.4527 8.14728C82.6136 8.28338 82.7373 8.40092 82.8239 8.4999C82.9105 8.58651 82.9847 8.70405 83.0466 8.85252C83.1208 9.00099 83.1827 9.12471 83.2322 9.22369C83.2817 9.32267 83.325 9.45877 83.3621 9.63199C83.4116 9.8052 83.4425 9.92274 83.4549 9.98461L83.5663 10.5414C83.6652 11.0363 83.9436 11.2837 84.4014 11.2837C84.8716 11.2837 85.2922 11.1662 85.6634 10.9311C86.0346 10.696 86.2202 10.4424 86.2202 10.1702C86.2202 9.79902 86.4181 9.61343 86.8141 9.61343C87.21 9.61343 87.5812 9.92893 87.9276 10.5599C88.175 11.0053 88.5153 11.3023 88.9483 11.4508C89.3937 11.5869 89.9319 11.6549 90.5629 11.6549C90.9341 11.6549 91.3424 11.5002 91.7878 11.1909C92.2456 10.8692 92.4745 10.4671 92.4745 9.98461C92.4745 9.16802 92.2332 8.53083 91.7507 8.07305C91.2806 7.61526 90.7485 7.38637 90.1546 7.38637C89.5608 7.38637 89.0844 7.51628 88.7256 7.7761C88.3792 8.02356 88.206 8.38855 88.206 8.87108C88.206 9.24225 88.0204 9.42784 87.6492 9.42784C87.278 9.42784 87.0924 9.24225 87.0924 8.87108C87.0924 8.07923 87.377 7.44823 87.9461 6.97807C88.5153 6.50792 89.2638 6.27284 90.1918 6.27284C91.1321 6.27284 91.9301 6.62546 92.5859 7.33069C93.254 8.02356 93.588 8.90819 93.588 9.98461C93.588 10.7765 93.2478 11.4384 92.5673 11.9704C91.8992 12.5024 91.2311 12.7684 90.5629 12.7684C88.7813 12.7684 87.5997 12.2426 87.0182 11.1909C86.845 11.4879 86.5109 11.7663 86.016 12.0261C85.5335 12.2735 85.02 12.3973 84.4756 12.3973C83.9312 12.3973 83.4858 12.2426 83.1394 11.9333C82.793 11.6116 82.5765 11.2404 82.4898 10.8198C82.2548 9.64436 81.9949 9.05666 81.7104 9.05666C81.4877 9.05666 81.265 9.19276 81.0423 9.46496C80.8319 9.73716 80.634 10.0341 80.4484 10.3558C80.2752 10.6775 80.0215 10.9744 79.6875 11.2466C79.3534 11.5188 79.007 11.6549 78.6482 11.6549C78.3017 11.6549 77.9986 11.6116 77.7388 11.525C77.4913 11.4384 77.2377 11.2961 76.9779 11.0981C76.4211 10.6651 76.1427 9.79902 76.1427 8.4999C76.1427 6.18623 76.5015 4.19425 77.2191 2.52395C77.9491 0.841283 78.8276 -5.09097e-05 79.8545 -5.09097e-05C80.4113 -5.09097e-05 80.8505 0.2474 81.1722 0.742303C81.4939 1.22483 81.6547 1.76923 81.6547 2.37548C81.6547 2.98174 81.5805 3.52613 81.432 4.00866C81.2959 4.49119 81.1351 4.88092 80.9495 5.17787C80.7762 5.46244 80.535 5.74082 80.2257 6.01301C79.904 6.28521 79.6565 6.4708 79.4833 6.56978C78.9637 6.86672 78.5925 7.01519 78.3698 7.01519C77.9986 7.01519 77.813 6.8296 77.813 6.45843ZM95.992 7.75755C95.992 7.5967 96.0415 7.46679 96.1405 7.36781C96.2394 7.25646 96.3755 7.20078 96.5487 7.20078C96.9199 7.20078 97.1055 7.38637 97.1055 7.75755C97.1055 8.71023 97.3282 9.60106 97.7736 10.43C98.2314 11.2466 98.7511 11.6549 99.3326 11.6549C99.5924 11.6549 100.162 10.1826 101.04 7.2379C101.151 6.86672 101.386 6.68113 101.745 6.68113C101.931 6.68113 102.067 6.71825 102.154 6.79249C102.24 6.86672 102.29 6.9657 102.302 7.08943C102.327 7.21315 102.364 7.44823 102.413 7.79466C102.463 8.14109 102.525 8.48753 102.599 8.83396C102.661 9.18039 102.741 9.55157 102.84 9.94749C103.063 10.8383 103.317 11.2837 103.601 11.2837C103.836 11.2837 104.047 11.2528 104.232 11.1909C104.418 11.1291 104.529 11.0981 104.566 11.0981C104.937 11.0981 105.123 11.2837 105.123 11.6549C105.123 11.9271 104.956 12.1189 104.622 12.2302C104.288 12.3416 103.978 12.3973 103.694 12.3973C103.409 12.3973 103.174 12.354 102.989 12.2673C102.803 12.1684 102.648 12.0508 102.525 11.9147C102.426 11.791 102.314 11.6054 102.191 11.358C102.055 11.0858 101.925 10.7703 101.801 10.4115C101.69 10.0527 101.628 9.84232 101.615 9.78046C101.603 9.7186 101.591 9.65673 101.578 9.59487C101.578 9.52064 101.572 9.46496 101.56 9.42784C101.535 9.47733 101.51 9.55157 101.485 9.65055L101.411 9.87325C101.386 9.92274 101.362 9.97842 101.337 10.0403C101.325 10.0898 101.263 10.2815 101.151 10.6156C101.04 10.9373 100.941 11.1971 100.854 11.3951C100.768 11.5683 100.65 11.7786 100.502 12.0261C100.205 12.521 99.7965 12.7684 99.2769 12.7684C98.7696 12.7684 98.2376 12.521 97.6808 12.0261C97.1241 11.5312 96.691 10.8692 96.3817 10.0403C96.1466 10.4238 95.8621 10.7765 95.528 11.0981C94.9712 11.6425 94.563 11.9642 94.3031 12.0632C94.0557 12.1622 93.8639 12.2117 93.7278 12.2117C93.3566 12.2117 93.171 12.0261 93.171 11.6549C93.171 11.4198 93.3566 11.228 93.7278 11.0796C94.099 10.9187 94.5691 10.5228 95.1383 9.89181C95.7074 9.26081 95.992 8.54939 95.992 7.75755ZM107.667 13.2695C107.593 13.1705 107.37 12.886 106.999 12.4158C106.628 11.9457 106.374 11.6178 106.238 11.4322C106.114 11.2342 105.935 10.9497 105.7 10.5785C105.291 9.93512 105.087 9.27937 105.087 8.61125C105.087 7.94313 105.267 7.35544 105.625 6.84816C105.997 6.34089 106.461 6.08725 107.017 6.08725C107.574 6.08725 108.063 6.25428 108.484 6.58834C108.904 6.9224 109.183 7.39874 109.319 8.01737C109.343 8.11635 109.356 8.21533 109.356 8.31431C109.356 8.68549 109.17 8.87108 108.799 8.87108C108.527 8.87108 108.341 8.68549 108.242 8.31431C108.069 7.57196 107.698 7.20078 107.129 7.20078C106.819 7.20078 106.584 7.35544 106.424 7.66475C106.275 7.96169 106.201 8.25863 106.201 8.55558C106.201 8.85252 106.238 9.11853 106.312 9.35361C106.399 9.58868 106.535 9.86088 106.72 10.1702C106.918 10.4671 107.079 10.7022 107.203 10.8754C107.537 11.3456 107.976 11.9085 108.521 12.5643C109.337 11.958 110.16 11.5126 110.989 11.228C111.249 11.1414 111.397 11.0981 111.434 11.0981C111.806 11.0981 111.991 11.2837 111.991 11.6549C111.991 11.9271 111.806 12.1251 111.434 12.2488C110.704 12.4839 109.944 12.8922 109.152 13.4737C109.733 14.3769 110.024 15.1378 110.024 15.7564C110.024 16.375 109.776 16.9937 109.282 17.6123C108.787 18.2433 108.248 18.5588 107.667 18.5588C107.085 18.5588 106.603 18.3608 106.219 17.9649C105.836 17.569 105.644 17.0741 105.644 16.4802C105.644 15.5646 106.318 14.4944 107.667 13.2695ZM108.298 14.1789C107.271 15.144 106.758 15.9111 106.758 16.4802C106.758 16.7771 106.838 17.0122 106.999 17.1854C107.16 17.3587 107.376 17.4453 107.648 17.4453C107.933 17.4453 108.211 17.2411 108.484 16.8328C108.768 16.4245 108.91 16.0348 108.91 15.6636C108.91 15.3048 108.706 14.8099 108.298 14.1789ZM121.463 11.6549C121.463 12.1498 120.894 12.3973 119.756 12.3973C119.224 12.3973 118.81 12.2797 118.513 12.0446C118.228 11.8096 118.086 11.4013 118.086 10.8198C118.086 10.2382 118.036 9.73715 117.937 9.31649C117.838 8.89582 117.702 8.68549 117.529 8.68549C117.009 8.68549 116.514 9.16802 116.044 10.1331C115.846 10.529 115.636 10.9311 115.413 11.3394C115.191 11.7353 114.894 12.0756 114.522 12.3601C114.164 12.6323 113.743 12.7684 113.26 12.7684C112.147 12.7684 111.59 11.692 111.59 9.53919C111.59 7.99262 111.757 6.48936 112.091 5.0294C112.438 3.56943 112.914 2.36929 113.52 1.42898C114.139 0.476293 114.788 -5.09097e-05 115.469 -5.09097e-05C116.149 -5.09097e-05 116.663 0.2474 117.009 0.742303C117.356 1.23721 117.529 1.88058 117.529 2.67242C117.529 3.45189 117.306 4.22518 116.861 4.99228C116.428 5.747 115.896 6.35945 115.265 6.8296C114.955 7.07705 114.72 7.20078 114.56 7.20078C114.188 7.20078 114.003 7.01519 114.003 6.64401C114.003 6.49554 114.213 6.26047 114.634 5.93878C115.054 5.61709 115.457 5.15931 115.84 4.56542C116.224 3.95917 116.415 3.25393 116.415 2.44972C116.415 2.11566 116.341 1.81253 116.193 1.54033C116.044 1.25576 115.809 1.11348 115.487 1.11348C115.116 1.11348 114.714 1.50322 114.281 2.28269C113.86 3.04979 113.489 4.10145 113.168 5.43769C112.858 6.77393 112.704 8.14728 112.704 9.55775C112.704 10.9559 112.889 11.6549 113.26 11.6549C113.78 11.6549 114.275 11.1724 114.745 10.2073C114.943 9.81139 115.153 9.41547 115.376 9.01955C115.599 8.61125 115.89 8.27101 116.248 7.99881C116.62 7.71424 117.046 7.57196 117.529 7.57196C118.642 7.57196 119.199 8.62362 119.199 10.727C119.199 11.0981 119.379 11.2837 119.737 11.2837C120.109 11.2837 120.387 11.2528 120.573 11.1909C120.758 11.1291 120.87 11.0981 120.907 11.0981C121.278 11.0981 121.463 11.2837 121.463 11.6549ZM122.188 5.60472C122.176 5.4315 122.169 5.15931 122.169 4.78813C122.169 3.45189 122.293 2.04142 122.541 0.556714C122.602 0.185537 122.788 -5.09097e-05 123.097 -5.09097e-05C123.468 -5.09097e-05 123.654 0.179351 123.654 0.538155C123.654 0.600018 123.642 0.705185 123.617 0.853656C123.394 2.18989 123.283 3.50138 123.283 4.78813V5.40057C124.904 5.116 126.079 4.97372 126.809 4.97372C127.18 4.97372 127.366 5.15931 127.366 5.53048C127.366 5.90166 127.18 6.08725 126.809 6.08725C126.091 6.08725 124.935 6.22953 123.339 6.5141C123.598 9.9413 124.693 11.6549 126.623 11.6549C127.057 11.6549 127.595 11.5621 128.238 11.3765C128.881 11.1909 129.222 11.0981 129.259 11.0981C129.63 11.0981 129.816 11.2837 129.816 11.6549C129.816 11.9271 129.63 12.1251 129.259 12.2488C128.22 12.5952 127.341 12.7684 126.623 12.7684C125.473 12.7684 124.502 12.2983 123.71 11.358C122.918 10.4176 122.429 8.87108 122.244 6.71825L121.817 6.81104C121.705 6.82342 121.637 6.8296 121.613 6.8296C121.241 6.8296 121.056 6.64401 121.056 6.27284C121.056 5.9759 121.241 5.79031 121.613 5.71607C121.848 5.66658 122.039 5.62946 122.188 5.60472Z" fill="#121212"/>
</svg>
